<svg width="510" height="157" viewBox="0 0 510 157" fill="none" xmlns="http://www.w3.org/2000/svg">
<g filter="url(#filter0_d_1_105)">
<rect x="72" width="17" height="42" fill="url(#paint0_linear_1_105)"/>
<rect x="412" width="17" height="42" fill="url(#paint1_linear_1_105)"/>
<rect x="4" y="29" width="502" height="120" rx="26" fill="url(#paint2_linear_1_105)"/>
<path d="M51.1447 105L44.4181 70.6406H50.2541L54.4728 94.2422L59.6291 70.6406H66.4025L71.3478 94.6406L75.6837 70.6406H81.4025L74.5587 105H68.5119L62.8869 79.3125L57.3087 105H51.1447ZM83.8756 105V70.6406H89.5475V84.1641H100.704V70.6406H106.399V105H100.704V89.9766H89.5475V105H83.8756ZM137.185 105H130.997L128.536 97.1953H117.286L114.966 105H108.919L119.888 70.6406H125.911L137.185 105ZM126.708 91.4062L122.841 78.6562L119.021 91.4062H126.708ZM143.15 105V76.4531H134.783V70.6406H157.166V76.4531H148.822V105H143.15ZM170.831 70.6406H181.213C183.838 70.6406 185.815 70.9375 187.143 71.5312C188.487 72.1094 189.721 73.0938 190.846 74.4844C191.971 75.875 192.854 77.6797 193.495 79.8984C194.135 82.1172 194.456 84.875 194.456 88.1719C194.456 91.1406 194.12 93.7266 193.448 95.9297C192.776 98.1172 191.924 99.8516 190.893 101.133C189.862 102.414 188.612 103.383 187.143 104.039C185.69 104.68 183.815 105 181.518 105H170.831V70.6406ZM176.502 76.4531V99.2109H180.768C182.596 99.2109 183.917 99.0391 184.729 98.6953C185.557 98.3516 186.229 97.8359 186.745 97.1484C187.276 96.4453 187.713 95.3438 188.057 93.8438C188.401 92.3438 188.573 90.3672 188.573 87.9141C188.573 85.3672 188.393 83.3594 188.034 81.8906C187.69 80.4219 187.143 79.2656 186.393 78.4219C185.659 77.5781 184.76 77.0234 183.698 76.7578C182.901 76.5547 181.362 76.4531 179.081 76.4531H176.502ZM197.655 88.0312C197.655 83.9375 198.257 80.5703 199.46 77.9297C200.679 75.2734 202.265 73.2969 204.218 72C206.171 70.7031 208.538 70.0547 211.319 70.0547C215.351 70.0547 218.632 71.5938 221.163 74.6719C223.71 77.75 224.983 82.1328 224.983 87.8203C224.983 93.5703 223.64 98.0625 220.952 101.297C218.593 104.156 215.39 105.586 211.343 105.586C207.265 105.586 204.046 104.172 201.687 101.344C198.999 98.1094 197.655 93.6719 197.655 88.0312ZM203.515 87.7969C203.515 91.75 204.265 94.7188 205.765 96.7031C207.265 98.6719 209.124 99.6562 211.343 99.6562C213.577 99.6562 215.429 98.6797 216.897 96.7266C218.366 94.7578 219.101 91.7422 219.101 87.6797C219.101 83.6953 218.382 80.75 216.944 78.8438C215.522 76.9375 213.655 75.9844 211.343 75.9844C209.03 75.9844 207.147 76.9453 205.694 78.8672C204.241 80.7891 203.515 83.7656 203.515 87.7969ZM243.43 105L236.703 70.6406H242.539L246.758 94.2422L251.914 70.6406H258.688L263.633 94.6406L267.969 70.6406H273.688L266.844 105H260.797L255.172 79.3125L249.594 105H243.43ZM276.161 105V70.6406H297.067V76.4531H281.832V84.0703H295.989V89.8594H281.832V99.2109H297.582V105H276.161ZM312.56 105V70.9219H318.232V99.2109H332.388V105H312.56ZM335.986 105V70.6406H356.892V76.4531H341.658V84.0703H355.814V89.8594H341.658V99.2109H357.408V105H335.986ZM387.139 105H380.952L378.491 97.1953H367.241L364.92 105H358.873L369.842 70.6406H375.866L387.139 105ZM376.663 91.4062L372.795 78.6562L368.975 91.4062H376.663ZM389.682 105V70.6406H401.659C404.722 70.6406 406.909 70.9531 408.222 71.5781C409.534 72.1875 410.612 73.2578 411.456 74.7891C412.3 76.3047 412.722 78.125 412.722 80.25C412.722 82.9375 412.073 85.1016 410.776 86.7422C409.495 88.3828 407.667 89.4141 405.292 89.8359C406.511 90.7109 407.518 91.6719 408.315 92.7188C409.112 93.75 410.198 95.6094 411.573 98.2969L414.995 105H408.222L404.097 97.5234C402.612 94.8203 401.604 93.1328 401.073 92.4609C400.542 91.7734 399.979 91.3047 399.386 91.0547C398.792 90.7891 397.839 90.6562 396.526 90.6562H395.354V105H389.682ZM395.354 85.1719H399.573C402.151 85.1719 403.792 85.0625 404.495 84.8438C405.198 84.6094 405.768 84.1484 406.206 83.4609C406.643 82.7734 406.862 81.8594 406.862 80.7188C406.862 79.625 406.643 78.75 406.206 78.0938C405.768 77.4219 405.175 76.9609 404.425 76.7109C403.893 76.5391 402.354 76.4531 399.807 76.4531H395.354V85.1719ZM417.656 105V70.6406H423.187L434.718 93.5859V70.6406H440.015V105H434.296L422.952 82.5938V105H417.656ZM457.09 96.1406H452.191L452.168 94.6406C452.168 92.625 452.433 90.9922 452.965 89.7422C453.496 88.4922 454.527 87.1172 456.058 85.6172C457.762 83.9297 458.785 82.7734 459.129 82.1484C459.473 81.5234 459.644 80.7969 459.644 79.9688C459.644 78.6094 459.199 77.4922 458.308 76.6172C457.433 75.7422 456.324 75.3047 454.98 75.3047C452.09 75.3047 450.308 77.2344 449.637 81.0938L444.691 80.3438C444.832 77.4062 445.84 75 447.715 73.125C449.605 71.2344 451.973 70.2891 454.816 70.2891C457.707 70.2891 460.113 71.2344 462.035 73.125C463.957 75.0156 464.918 77.375 464.918 80.2031C464.918 81.6406 464.582 83.0078 463.91 84.3047C463.238 85.5859 461.793 87.3438 459.574 89.5781C458.433 90.7344 457.723 91.6641 457.441 92.3672C457.176 93.0703 457.058 94.3281 457.09 96.1406ZM452.191 105V98.4141H457.605V105H452.191Z" fill="black"/>
</g>
<defs>
<filter id="filter0_d_1_105" x="0" y="0" width="510" height="157" filterUnits="userSpaceOnUse" color-interpolation-filters="sRGB">
<feFlood flood-opacity="0" result="BackgroundImageFix"/>
<feColorMatrix in="SourceAlpha" type="matrix" values="0 0 0 0 0 0 0 0 0 0 0 0 0 0 0 0 0 0 127 0" result="hardAlpha"/>
<feOffset dy="4"/>
<feGaussianBlur stdDeviation="2"/>
<feComposite in2="hardAlpha" operator="out"/>
<feColorMatrix type="matrix" values="0 0 0 0 0 0 0 0 0 0 0 0 0 0 0 0 0 0 0.25 0"/>
<feBlend mode="normal" in2="BackgroundImageFix" result="effect1_dropShadow_1_105"/>
<feBlend mode="normal" in="SourceGraphic" in2="effect1_dropShadow_1_105" result="shape"/>
</filter>
<linearGradient id="paint0_linear_1_105" x1="81" y1="-12" x2="81" y2="31" gradientUnits="userSpaceOnUse">
<stop stop-color="white"/>
<stop offset="1" stop-color="#FEF10C"/>
</linearGradient>
<linearGradient id="paint1_linear_1_105" x1="421" y1="-12" x2="421" y2="31" gradientUnits="userSpaceOnUse">
<stop stop-color="white"/>
<stop offset="1" stop-color="#FEF10C"/>
</linearGradient>
<linearGradient id="paint2_linear_1_105" x1="255" y1="-19" x2="255" y2="149" gradientUnits="userSpaceOnUse">
<stop stop-color="white"/>
<stop offset="0.755952" stop-color="#FEF10C"/>
</linearGradient>
</defs>
</svg>
