<svg width="214" height="214" viewBox="0 0 214 214" fill="none" xmlns="http://www.w3.org/2000/svg">
<g filter="url(#filter0_d_1_163)">
<path d="M99.0005 19.1097C103.395 15.3114 109.91 15.3114 114.304 19.1097L117.607 21.9646C120.724 24.6593 125.029 25.5156 128.94 24.219L133.084 22.8453C138.597 21.0176 144.617 23.5109 147.223 28.7017L149.181 32.6031C151.03 36.2857 154.68 38.7242 158.79 39.0231L163.144 39.3397C168.937 39.761 173.544 44.368 173.965 50.161L174.281 54.515C174.58 58.6247 177.019 62.2743 180.701 64.1231L184.603 66.0818C189.794 68.6879 192.287 74.7073 190.459 80.2205L189.086 84.3642C187.789 88.2755 188.645 92.5805 191.34 95.6978L194.195 99.0005C197.993 103.395 197.993 109.91 194.195 114.304L191.34 117.607C188.645 120.724 187.789 125.029 189.086 128.94L190.459 133.084C192.287 138.597 189.794 144.617 184.603 147.223L180.701 149.181C177.019 151.03 174.58 154.68 174.281 158.79L173.965 163.144C173.544 168.937 168.937 173.544 163.144 173.965L158.79 174.281C154.68 174.58 151.03 177.019 149.181 180.701L147.223 184.603C144.617 189.794 138.597 192.287 133.084 190.459L128.94 189.086C125.029 187.789 120.724 188.645 117.607 191.34L114.304 194.195C109.91 197.993 103.395 197.993 99.0005 194.195L95.6978 191.34C92.5805 188.645 88.2755 187.789 84.3642 189.086L80.2205 190.459C74.7073 192.287 68.6879 189.794 66.0818 184.603L64.1231 180.701C62.2743 177.019 58.6247 174.58 54.5149 174.281L50.1609 173.965C44.368 173.544 39.761 168.937 39.3397 163.144L39.0231 158.79C38.7242 154.68 36.2857 151.03 32.6031 149.181L28.7017 147.223C23.5109 144.617 21.0176 138.597 22.8453 133.084L24.219 128.94C25.5156 125.029 24.6593 120.724 21.9646 117.607L19.1097 114.304C15.3114 109.91 15.3114 103.395 19.1097 99.0005L21.9646 95.6978C24.6593 92.5805 25.5156 88.2755 24.219 84.3642L22.8453 80.2205C21.0176 74.7073 23.5109 68.6879 28.7017 66.0818L32.6031 64.1231C36.2857 62.2743 38.7242 58.6247 39.0231 54.5149L39.3397 50.161C39.761 44.368 44.368 39.761 50.161 39.3397L54.515 39.0231C58.6247 38.7242 62.2743 36.2856 64.1231 32.6031L66.0818 28.7017C68.6879 23.5109 74.7073 21.0176 80.2205 22.8453L84.3642 24.219C88.2755 25.5156 92.5805 24.6593 95.6978 21.9646L99.0005 19.1097Z" fill="url(#paint0_linear_1_163)"/>
</g>
<path d="M91.0734 72.4399V62.4185H93.0421L97.1437 69.1108V62.4185H99.0236V72.4399H96.9933L92.9533 65.9048V72.4399H91.0734ZM101.45 72.4399V62.4185H108.881V64.1138H103.473V66.3354H108.505V68.0239H103.473V70.7515H109.072V72.4399H101.45ZM112.49 72.4399L110.097 62.4185H112.169L113.679 69.3022L115.511 62.4185H117.918L119.674 69.4185L121.212 62.4185H123.25L120.816 72.4399H118.67L116.673 64.9478L114.684 72.4399H112.49Z" fill="#C41F1F"/>
<path d="M78.7571 114.865H74.8977L78.179 95.7864H72.6633L73.3196 91.9583H88.1165L87.4602 95.7864H82.0383L78.7571 114.865ZM86.9215 105.88C86.9215 103.901 87.2548 101.865 87.9215 99.7708C88.7652 97.0833 90.0152 95.0468 91.6715 93.6614C93.3277 92.2655 95.2444 91.5676 97.4215 91.5676C99.6819 91.5676 101.541 92.427 103 94.1458C104.468 95.8645 105.203 98.2083 105.203 101.177C105.203 103.865 104.677 106.344 103.625 108.615C102.583 110.885 101.286 112.562 99.734 113.646C98.1819 114.729 96.4736 115.271 94.609 115.271C92.3798 115.271 90.6038 114.49 89.2808 112.927C87.7079 111.083 86.9215 108.734 86.9215 105.88ZM90.7496 105.786C90.7496 107.474 91.1611 108.823 91.984 109.833C92.8173 110.833 93.8277 111.333 95.0152 111.333C95.9736 111.333 96.9215 110.958 97.859 110.208C98.7965 109.458 99.609 108.229 100.296 106.521C100.994 104.802 101.343 103.057 101.343 101.286C101.343 99.4322 100.916 97.9739 100.062 96.9114C99.3121 95.9739 98.3277 95.5051 97.109 95.5051C96.1298 95.5051 95.1611 95.8853 94.2027 96.6458C93.2444 97.4062 92.4267 98.6301 91.7496 100.318C91.0829 101.995 90.7496 103.818 90.7496 105.786ZM105.789 114.865L109.711 91.9583H116.148C117.867 91.9583 119.091 92.0676 119.82 92.2864C120.956 92.6197 121.831 93.2395 122.445 94.1458C123.06 95.052 123.367 96.1718 123.367 97.5051C123.367 98.8489 123.07 99.9739 122.476 100.88C121.883 101.786 120.992 102.474 119.805 102.943C120.732 103.255 121.471 103.818 122.023 104.63C122.586 105.443 122.867 106.391 122.867 107.474C122.867 108.953 122.529 110.292 121.851 111.49C121.185 112.687 120.31 113.552 119.226 114.083C118.154 114.604 116.628 114.865 114.648 114.865H105.789ZM111.992 101.208H114.945C116.237 101.208 117.164 101.104 117.726 100.896C118.289 100.687 118.732 100.328 119.055 99.8176C119.378 99.3072 119.539 98.7239 119.539 98.0676C119.539 97.5364 119.419 97.0885 119.18 96.7239C118.94 96.3489 118.638 96.0989 118.273 95.9739C117.909 95.8489 117.122 95.7864 115.914 95.7864H112.93L111.992 101.208ZM110.289 111.177H114.008C115.466 111.177 116.466 111.073 117.008 110.865C117.549 110.656 118.003 110.276 118.367 109.724C118.732 109.161 118.914 108.531 118.914 107.833C118.914 107.01 118.674 106.365 118.195 105.896C117.716 105.427 116.961 105.193 115.93 105.193H111.305L110.289 111.177ZM125.656 105.88C125.656 103.901 125.99 101.865 126.656 99.7708C127.5 97.0833 128.75 95.0468 130.406 93.6614C132.063 92.2655 133.979 91.5676 136.156 91.5676C138.417 91.5676 140.276 92.427 141.735 94.1458C143.203 95.8645 143.938 98.2083 143.938 101.177C143.938 103.865 143.412 106.344 142.36 108.615C141.318 110.885 140.021 112.562 138.469 113.646C136.917 114.729 135.209 115.271 133.344 115.271C131.115 115.271 129.339 114.49 128.016 112.927C126.443 111.083 125.656 108.734 125.656 105.88ZM129.485 105.786C129.485 107.474 129.896 108.823 130.719 109.833C131.552 110.833 132.563 111.333 133.75 111.333C134.709 111.333 135.656 110.958 136.594 110.208C137.531 109.458 138.344 108.229 139.031 106.521C139.729 104.802 140.078 103.057 140.078 101.286C140.078 99.4322 139.651 97.9739 138.797 96.9114C138.047 95.9739 137.063 95.5051 135.844 95.5051C134.865 95.5051 133.896 95.8853 132.938 96.6458C131.979 97.4062 131.162 98.6301 130.485 100.318C129.818 101.995 129.485 103.818 129.485 105.786ZM76.9327 149.865H72.7921L69.4327 126.958H73.2921L75.6827 144.286L83.4483 126.958H87.2765L76.9327 149.865ZM84.5502 149.865L88.4721 126.958H92.3315L88.4096 149.865H84.5502ZM91.7615 149.865L95.6833 126.958H100.746C102.506 126.958 103.699 127.031 104.324 127.177C105.376 127.437 106.293 127.953 107.074 128.724C107.866 129.495 108.491 130.526 108.949 131.818C109.407 133.099 109.636 134.641 109.636 136.443C109.636 138.338 109.402 140.094 108.933 141.708C108.465 143.312 107.803 144.719 106.949 145.927C106.105 147.125 105.23 148 104.324 148.552C103.418 149.094 102.47 149.463 101.48 149.661C100.834 149.797 99.8031 149.865 98.3865 149.865H91.7615ZM96.2615 146.177H98.2146C99.6417 146.177 100.642 146.078 101.215 145.88C101.965 145.63 102.668 145.12 103.324 144.349C103.98 143.568 104.548 142.49 105.027 141.115C105.506 139.729 105.746 138.13 105.746 136.318C105.746 134.818 105.548 133.641 105.152 132.786C104.767 131.932 104.246 131.354 103.59 131.052C103.121 130.844 102.303 130.74 101.136 130.74H98.9021L96.2615 146.177ZM110.316 149.865L114.238 126.958H128.16L127.504 130.786H117.457L116.566 135.99H126.285L125.629 139.818H115.91L114.832 146.036H125.629L124.988 149.865H110.316ZM128.715 140.88C128.715 138.901 129.049 136.865 129.715 134.771C130.559 132.083 131.809 130.047 133.465 128.661C135.121 127.266 137.038 126.568 139.215 126.568C141.476 126.568 143.335 127.427 144.793 129.146C146.262 130.865 146.996 133.208 146.996 136.177C146.996 138.865 146.47 141.344 145.418 143.615C144.377 145.885 143.08 147.562 141.528 148.646C139.976 149.729 138.267 150.271 136.403 150.271C134.174 150.271 132.398 149.49 131.075 147.927C129.502 146.083 128.715 143.734 128.715 140.88ZM132.543 140.786C132.543 142.474 132.955 143.823 133.778 144.833C134.611 145.833 135.621 146.333 136.809 146.333C137.767 146.333 138.715 145.958 139.653 145.208C140.59 144.458 141.403 143.229 142.09 141.521C142.788 139.802 143.137 138.057 143.137 136.286C143.137 134.432 142.71 132.974 141.856 131.911C141.106 130.974 140.121 130.505 138.903 130.505C137.924 130.505 136.955 130.885 135.996 131.646C135.038 132.406 134.22 133.63 133.543 135.318C132.877 136.995 132.543 138.818 132.543 140.786Z" fill="black"/>
<defs>
<filter id="filter0_d_1_163" x="14.261" y="15.261" width="184.782" height="184.783" filterUnits="userSpaceOnUse" color-interpolation-filters="sRGB">
<feFlood flood-opacity="0" result="BackgroundImageFix"/>
<feColorMatrix in="SourceAlpha" type="matrix" values="0 0 0 0 0 0 0 0 0 0 0 0 0 0 0 0 0 0 127 0" result="hardAlpha"/>
<feOffset dy="1"/>
<feGaussianBlur stdDeviation="1"/>
<feComposite in2="hardAlpha" operator="out"/>
<feColorMatrix type="matrix" values="0 0 0 0 0 0 0 0 0 0 0 0 0 0 0 0 0 0 0.15 0"/>
<feBlend mode="normal" in2="BackgroundImageFix" result="effect1_dropShadow_1_163"/>
<feBlend mode="normal" in="SourceGraphic" in2="effect1_dropShadow_1_163" result="shape"/>
</filter>
<linearGradient id="paint0_linear_1_163" x1="106.652" y1="12.4954" x2="106.652" y2="200.809" gradientUnits="userSpaceOnUse">
<stop stop-color="white"/>
<stop offset="0.358469" stop-color="#FEF10C"/>
</linearGradient>
</defs>
</svg>
