<svg width="510" height="157" viewBox="0 0 510 157" fill="none" xmlns="http://www.w3.org/2000/svg">
<rect x="72" width="17" height="42" fill="url(#paint0_linear_1_95)"/>
<rect x="412" width="17" height="42" fill="url(#paint1_linear_1_95)"/>
<g filter="url(#filter0_d_1_95)">
<rect x="4" y="29" width="502" height="120" rx="26" fill="url(#paint2_linear_1_95)"/>
<path d="M147.627 105H141.439L138.978 97.1953H127.728L125.408 105H119.361L130.33 70.6406H136.353L147.627 105ZM137.15 91.4062L133.283 78.6562L129.462 91.4062H137.15ZM150.147 70.6406H161.42C164.498 70.6406 166.662 70.9219 167.912 71.4844C169.162 72.0469 170.217 73.0391 171.076 74.4609C171.936 75.8828 172.365 77.4922 172.365 79.2891C172.365 80.9453 171.998 82.4453 171.264 83.7891C170.529 85.1172 169.576 86.1016 168.404 86.7422C170.076 87.3359 171.381 88.3516 172.318 89.7891C173.272 91.2266 173.748 92.9766 173.748 95.0391C173.748 97.5391 173.147 99.6562 171.943 101.391C170.74 103.109 169.318 104.172 167.678 104.578C166.537 104.859 163.889 105 159.732 105H150.147V70.6406ZM155.818 76.3594V84.3047H159.568C161.818 84.3047 163.209 84.2656 163.74 84.1875C164.709 84.0312 165.467 83.625 166.014 82.9688C166.561 82.2969 166.834 81.3906 166.834 80.25C166.834 79.2344 166.607 78.4141 166.154 77.7891C165.717 77.1484 165.178 76.75 164.537 76.5938C163.912 76.4375 162.1 76.3594 159.1 76.3594H155.818ZM155.818 90.0234V99.2109H161.092C163.404 99.2109 164.889 99.0938 165.545 98.8594C166.201 98.6094 166.748 98.1328 167.186 97.4297C167.639 96.7109 167.865 95.8047 167.865 94.7109C167.865 93.5859 167.623 92.6641 167.139 91.9453C166.67 91.2109 166.037 90.7109 165.24 90.4453C164.459 90.1641 162.85 90.0234 160.412 90.0234H155.818ZM176.948 88.0312C176.948 83.9375 177.549 80.5703 178.752 77.9297C179.971 75.2734 181.557 73.2969 183.51 72C185.463 70.7031 187.831 70.0547 190.612 70.0547C194.643 70.0547 197.924 71.5938 200.456 74.6719C203.002 77.75 204.276 82.1328 204.276 87.8203C204.276 93.5703 202.932 98.0625 200.245 101.297C197.885 104.156 194.682 105.586 190.635 105.586C186.557 105.586 183.338 104.172 180.979 101.344C178.292 98.1094 176.948 93.6719 176.948 88.0312ZM182.807 87.7969C182.807 91.75 183.557 94.7188 185.057 96.7031C186.557 98.6719 188.417 99.6562 190.635 99.6562C192.87 99.6562 194.721 98.6797 196.19 96.7266C197.659 94.7578 198.393 91.7422 198.393 87.6797C198.393 83.6953 197.674 80.75 196.237 78.8438C194.815 76.9375 192.948 75.9844 190.635 75.9844C188.323 75.9844 186.44 76.9453 184.987 78.8672C183.534 80.7891 182.807 83.7656 182.807 87.7969ZM208.202 70.6406H213.874V89.25C213.874 92.1406 213.944 94.0234 214.085 94.8984C214.335 96.4141 214.929 97.5859 215.866 98.4141C216.819 99.2422 218.069 99.6562 219.616 99.6562C220.929 99.6562 221.999 99.3672 222.827 98.7891C223.655 98.1953 224.218 97.3828 224.515 96.3516C224.827 95.3047 224.983 93.0703 224.983 89.6484V70.6406H230.679V88.6875C230.679 93.2969 230.429 96.6328 229.929 98.6953C229.444 100.742 228.335 102.406 226.601 103.688C224.882 104.953 222.608 105.586 219.78 105.586C216.843 105.586 214.546 105.062 212.89 104.016C211.249 102.953 210.054 101.469 209.304 99.5625C208.569 97.6406 208.202 94.1094 208.202 88.9688V70.6406ZM242.527 105V76.4531H234.16V70.6406H256.542V76.4531H248.199V105H242.527ZM276.582 105V76.4531H268.215V70.6406H290.598V76.4531H282.254V105H276.582ZM291.97 88.0312C291.97 83.9375 292.571 80.5703 293.774 77.9297C294.993 75.2734 296.579 73.2969 298.532 72C300.485 70.7031 302.852 70.0547 305.634 70.0547C309.665 70.0547 312.946 71.5938 315.477 74.6719C318.024 77.75 319.298 82.1328 319.298 87.8203C319.298 93.5703 317.954 98.0625 315.267 101.297C312.907 104.156 309.704 105.586 305.657 105.586C301.579 105.586 298.36 104.172 296.001 101.344C293.313 98.1094 291.97 93.6719 291.97 88.0312ZM297.829 87.7969C297.829 91.75 298.579 94.7188 300.079 96.7031C301.579 98.6719 303.438 99.6562 305.657 99.6562C307.892 99.6562 309.743 98.6797 311.212 96.7266C312.681 94.7578 313.415 91.7422 313.415 87.6797C313.415 83.6953 312.696 80.75 311.259 78.8438C309.837 76.9375 307.97 75.9844 305.657 75.9844C303.345 75.9844 301.462 76.9453 300.009 78.8672C298.556 80.7891 297.829 83.7656 297.829 87.7969ZM323.271 70.6406H334.544C337.622 70.6406 339.787 70.9219 341.037 71.4844C342.287 72.0469 343.341 73.0391 344.201 74.4609C345.06 75.8828 345.49 77.4922 345.49 79.2891C345.49 80.9453 345.122 82.4453 344.388 83.7891C343.654 85.1172 342.701 86.1016 341.529 86.7422C343.201 87.3359 344.505 88.3516 345.443 89.7891C346.396 91.2266 346.872 92.9766 346.872 95.0391C346.872 97.5391 346.271 99.6562 345.068 101.391C343.865 103.109 342.443 104.172 340.802 104.578C339.662 104.859 337.013 105 332.857 105H323.271V70.6406ZM328.943 76.3594V84.3047H332.693C334.943 84.3047 336.333 84.2656 336.865 84.1875C337.833 84.0312 338.591 83.625 339.138 82.9688C339.685 82.2969 339.958 81.3906 339.958 80.25C339.958 79.2344 339.732 78.4141 339.279 77.7891C338.841 77.1484 338.302 76.75 337.662 76.5938C337.037 76.4375 335.224 76.3594 332.224 76.3594H328.943ZM328.943 90.0234V99.2109H334.216C336.529 99.2109 338.013 99.0938 338.669 98.8594C339.326 98.6094 339.872 98.1328 340.31 97.4297C340.763 96.7109 340.99 95.8047 340.99 94.7109C340.99 93.5859 340.747 92.6641 340.263 91.9453C339.794 91.2109 339.162 90.7109 338.365 90.4453C337.583 90.1641 335.974 90.0234 333.537 90.0234H328.943ZM350.072 88.0312C350.072 83.9375 350.674 80.5703 351.877 77.9297C353.096 75.2734 354.682 73.2969 356.635 72C358.588 70.7031 360.955 70.0547 363.736 70.0547C367.767 70.0547 371.049 71.5938 373.58 74.6719C376.127 77.75 377.4 82.1328 377.4 87.8203C377.4 93.5703 376.057 98.0625 373.369 101.297C371.01 104.156 367.807 105.586 363.76 105.586C359.682 105.586 356.463 104.172 354.103 101.344C351.416 98.1094 350.072 93.6719 350.072 88.0312ZM355.932 87.7969C355.932 91.75 356.682 94.7188 358.182 96.7031C359.682 98.6719 361.541 99.6562 363.76 99.6562C365.994 99.6562 367.846 98.6797 369.314 96.7266C370.783 94.7578 371.517 91.7422 371.517 87.6797C371.517 83.6953 370.799 80.75 369.361 78.8438C367.939 76.9375 366.072 75.9844 363.76 75.9844C361.447 75.9844 359.564 76.9453 358.111 78.8672C356.658 80.7891 355.932 83.7656 355.932 87.7969ZM383.436 96.1406L382.03 78.7031V70.6406H387.866V78.7031L386.483 96.1406H383.436ZM382.264 105V98.4141H387.655V105H382.264Z" fill="black"/>
</g>
<defs>
<filter id="filter0_d_1_95" x="0" y="29" width="510" height="128" filterUnits="userSpaceOnUse" color-interpolation-filters="sRGB">
<feFlood flood-opacity="0" result="BackgroundImageFix"/>
<feColorMatrix in="SourceAlpha" type="matrix" values="0 0 0 0 0 0 0 0 0 0 0 0 0 0 0 0 0 0 127 0" result="hardAlpha"/>
<feOffset dy="4"/>
<feGaussianBlur stdDeviation="2"/>
<feComposite in2="hardAlpha" operator="out"/>
<feColorMatrix type="matrix" values="0 0 0 0 0 0 0 0 0 0 0 0 0 0 0 0 0 0 0.35 0"/>
<feBlend mode="normal" in2="BackgroundImageFix" result="effect1_dropShadow_1_95"/>
<feBlend mode="normal" in="SourceGraphic" in2="effect1_dropShadow_1_95" result="shape"/>
</filter>
<linearGradient id="paint0_linear_1_95" x1="81" y1="-12" x2="81" y2="31" gradientUnits="userSpaceOnUse">
<stop stop-color="white"/>
<stop offset="1" stop-color="#FEF10C"/>
</linearGradient>
<linearGradient id="paint1_linear_1_95" x1="421" y1="-12" x2="421" y2="31" gradientUnits="userSpaceOnUse">
<stop stop-color="white"/>
<stop offset="1" stop-color="#FEF10C"/>
</linearGradient>
<linearGradient id="paint2_linear_1_95" x1="255" y1="-19" x2="255" y2="149" gradientUnits="userSpaceOnUse">
<stop stop-color="white"/>
<stop offset="0.755952" stop-color="#FEF10C"/>
</linearGradient>
</defs>
</svg>
